<?xml version="1.0" encoding="utf-8"?>
<!-- Generator: Adobe Illustrator 24.0.0, SVG Export Plug-In . SVG Version: 6.00 Build 0)  -->
<svg version="1.1" id="Capa_1" xmlns="http://www.w3.org/2000/svg" xmlns:xlink="http://www.w3.org/1999/xlink" x="0px" y="0px"
	 viewBox="0 0 12 12" style="enable-background:new 0 0 12 12;" xml:space="preserve">
<style type="text/css">
	.st0{fill-rule:evenodd;clip-rule:evenodd;fill:#212529;}
</style>
<path class="st0" d="M0.8,2.1v7.4C1.4,9.3,2.3,9,3.2,9c0.8-0.1,1.7,0,2.4,0.4V2C5.1,1.5,4.3,1.4,3.3,1.5C2.4,1.5,1.4,1.8,0.8,2.1z
	 M6.4,2v7.3C7.1,8.9,8,8.9,8.8,9c0.9,0.1,1.8,0.3,2.5,0.6V2.1c-0.7-0.3-1.6-0.6-2.5-0.7C7.7,1.4,6.9,1.5,6.4,2z M6,1.3
	C5.3,0.7,4.2,0.6,3.2,0.7c-1.1,0.1-2.3,0.5-3,0.8C0.1,1.6,0,1.7,0,1.9v8.3c0,0.2,0.2,0.4,0.4,0.4c0.1,0,0.1,0,0.2,0
	c0.7-0.3,1.7-0.7,2.8-0.8c1.1-0.1,1.9,0.1,2.4,0.7c0.1,0.2,0.4,0.2,0.5,0.1c0,0,0,0,0.1-0.1c0.5-0.6,1.4-0.8,2.4-0.7
	c1,0.1,2.1,0.5,2.8,0.8c0.2,0.1,0.4,0,0.5-0.2c0,0,0-0.1,0-0.2V1.9c0-0.1-0.1-0.3-0.2-0.3c-0.7-0.3-1.9-0.7-3-0.8
	C7.8,0.6,6.7,0.7,6,1.3z"/>
</svg>
