<?xml version="1.0" encoding="utf-8"?>
<!-- Generator: Adobe Illustrator 24.0.0, SVG Export Plug-In . SVG Version: 6.00 Build 0)  -->
<svg version="1.1" id="Capa_1" xmlns="http://www.w3.org/2000/svg" xmlns:xlink="http://www.w3.org/1999/xlink" x="0px" y="0px"
	 viewBox="0 0 12 12" style="enable-background:new 0 0 12 12;" xml:space="preserve">
<style type="text/css">
	.st0{fill:#212529;}
	.st1{fill-rule:evenodd;clip-rule:evenodd;fill:#212529;}
</style>
<path class="st0" d="M7.4,3C6.8,3,6.2,2.8,5.8,2.3L5.2,1.7C5,1.6,4.8,1.5,4.6,1.5H1.9c-0.4,0-0.7,0.3-0.8,0.7l0,0.8H0.4l0-0.8
	c0-0.8,0.7-1.5,1.5-1.5h2.8c0.4,0,0.8,0.2,1.1,0.4l0.6,0.6C6.6,2.1,7,2.2,7.4,2.3V3z"/>
<path class="st1" d="M10.4,3H1.6C1.2,3,0.9,3.3,0.9,3.7c0,0,0,0,0,0.1l0.5,5.3c0,0.4,0.4,0.7,0.7,0.7h7.8c0.4,0,0.7-0.3,0.7-0.7
	l0.5-5.3C11.1,3.4,10.8,3,10.4,3C10.4,3,10.4,3,10.4,3z M1.6,2.3c-0.8,0-1.5,0.7-1.5,1.5c0,0,0,0.1,0,0.1l0.5,5.2
	c0.1,0.8,0.7,1.4,1.5,1.4h7.8c0.8,0,1.4-0.6,1.5-1.4l0.5-5.3c0.1-0.8-0.5-1.6-1.4-1.6c0,0-0.1,0-0.1,0H1.6z"/>
</svg>
