<?xml version="1.0" encoding="utf-8"?>
<!-- Generator: Adobe Illustrator 24.0.0, SVG Export Plug-In . SVG Version: 6.00 Build 0)  -->
<svg version="1.1" id="Capa_1" xmlns="http://www.w3.org/2000/svg" xmlns:xlink="http://www.w3.org/1999/xlink" x="0px" y="0px"
	 viewBox="0 0 12 12" style="enable-background:new 0 0 12 12;" xml:space="preserve">
<style type="text/css">
	.st0{fill-rule:evenodd;clip-rule:evenodd;fill:#212529;}
</style>
<path class="st0" d="M8.3,0.8H3.8C3.3,0.8,3,1.1,3,1.5v9c0,0.4,0.3,0.8,0.8,0.8h4.5c0.4,0,0.8-0.3,0.8-0.8v-9C9,1.1,8.7,0.8,8.3,0.8
	z M3.8,0C2.9,0,2.3,0.7,2.3,1.5v9c0,0.8,0.7,1.5,1.5,1.5h4.5c0.8,0,1.5-0.7,1.5-1.5v-9C9.8,0.7,9.1,0,8.3,0H3.8z"/>
<path class="st0" d="M6,10.5c0.4,0,0.8-0.3,0.8-0.8S6.4,9,6,9C5.6,9,5.3,9.3,5.3,9.8S5.6,10.5,6,10.5z"/>
</svg>
