<?xml version="1.0" encoding="utf-8"?>
<!-- Generator: Adobe Illustrator 24.0.0, SVG Export Plug-In . SVG Version: 6.00 Build 0)  -->
<svg version="1.1" id="Capa_1" xmlns="http://www.w3.org/2000/svg" xmlns:xlink="http://www.w3.org/1999/xlink" x="0px" y="0px"
	 viewBox="0 0 12 12" style="enable-background:new 0 0 12 12;" xml:space="preserve">
<style type="text/css">
	.st0{fill-rule:evenodd;clip-rule:evenodd;fill:#212529;}
</style>
<path class="st0" d="M0.6,8.6c0-0.2,0.2-0.4,0.5-0.4h9.6c0.3,0,0.5,0.2,0.5,0.4S11,9,10.7,9H1.1C0.8,9,0.6,8.8,0.6,8.6z M0.6,5.6
	c0-0.2,0.2-0.4,0.5-0.4h9.6c0.3,0,0.5,0.2,0.5,0.4S11,6,10.7,6H1.1C0.8,6,0.6,5.8,0.6,5.6z M0.6,2.6c0-0.2,0.2-0.4,0.5-0.4h9.6
	c0.3,0,0.5,0.2,0.5,0.4S11,3,10.7,3H1.1C0.8,3,0.6,2.8,0.6,2.6z"/>
</svg>
